<svg width="44" height="48" fill="none" xmlns="http://www.w3.org/2000/svg"><path d="M35.558 13.704c.01.113.014.228.014.344v19.473a3.769 3.769 0 01-3.772 3.781l-.149-.001v7.703c0 1.655-1.361 2.996-3.04 2.996-1.68 0-3.042-1.341-3.042-2.996v-7.703H17.93v7.703c0 1.655-1.36 2.996-3.04 2.996s-3.042-1.341-3.042-2.996v-7.703l-.149.001a3.768 3.768 0 01-3.766-3.586l-.005-.195V14.048c0-.116.009-.23.019-.344h27.61zM3.04 15.437c1.68 0 3.041 1.341 3.041 2.996v12.852c0 1.655-1.361 2.996-3.04 2.996C1.361 34.281 0 32.94 0 31.285V18.433c0-1.655 1.361-2.996 3.041-2.996zm37.418 0c1.68 0 3.041 1.341 3.041 2.996v12.852c0 1.655-1.362 2.996-3.041 2.996-1.68 0-3.041-1.341-3.041-2.996V18.433c0-1.655 1.361-2.996 3.04-2.996zM34.567.042c.153.087.206.28.117.431l-2.576 4.395c2.057 2.028 3.315 4.667 3.356 7.556H8.035c.041-2.889 1.3-5.527 3.355-7.555L8.816.473a.313.313 0 01.117-.43.323.323 0 01.438.115l2.497 4.263c2.163-1.924 5.085-3.217 8.354-3.528h3.056c3.27.31 6.19 1.605 8.354 3.529L34.13.158a.323.323 0 01.437-.116zm-18.48 5.504c-.87.003-1.572.682-1.57 1.518.003.845.71 1.52 1.578 1.518.87-.002 1.572-.682 1.57-1.518-.003-.845-.71-1.52-1.578-1.518zm11.744 0c-.868.003-1.57.682-1.569 1.518.003.845.71 1.52 1.578 1.518.87-.002 1.572-.682 1.57-1.518-.003-.845-.71-1.52-1.579-1.518z" fill="#252B33"/></svg>