<svg width="60" height="60" fill="none" xmlns="http://www.w3.org/2000/svg"><path fill-rule="evenodd" clip-rule="evenodd" d="M16.35 12.5c.15 2.225.525 4.4 1.125 6.475l-3 3a37.064 37.064 0 01-1.9-9.475h3.775zM41 42.55c2.125.6 4.3.975 6.5 1.125V47.4a38.57 38.57 0 01-9.5-1.875l3-2.975zM18.75 7.5H10A2.507 2.507 0 007.5 10c0 23.475 19.025 42.5 42.5 42.5 1.375 0 2.5-1.125 2.5-2.5v-8.725c0-1.375-1.125-2.5-2.5-2.5-3.1 0-6.125-.5-8.925-1.425-.25-.1-.525-.125-.775-.125-.65 0-1.275.25-1.775.725l-5.5 5.5c-7.075-3.625-12.875-9.4-16.475-16.475l5.5-5.5c.7-.7.9-1.675.625-2.55A28.4 28.4 0 0121.25 10c0-1.375-1.125-2.5-2.5-2.5z" fill="#FF9400"/></svg>