<svg width="48" height="48" fill="none" xmlns="http://www.w3.org/2000/svg"><path d="M23.998 0a23.73 23.73 0 0111.003 2.674l.447.232-.392.326a7.509 7.509 0 00-2.213 2.903l-.134.326-.307-.147a19.619 19.619 0 109.7 10.19l-.13-.327.326-.117a7.509 7.509 0 003.007-2.07l.326-.379.21.457-.004-.029A24 24 0 1123.998 0zm.004 13.073c6.037.007 10.93 4.9 10.937 10.937 0 6.04-4.897 10.937-10.937 10.937-6.04 0-10.938-4.897-10.938-10.937 0-6.04 4.897-10.937 10.938-10.937zm15.704-8.995a4.982 4.982 0 110 9.964 4.982 4.982 0 010-9.964z" fill="#252B33"/></svg>