<svg width="39" height="48" fill="none" xmlns="http://www.w3.org/2000/svg"><path d="M32.572 25.5c.067 7.265 6.358 9.682 6.428 9.713-.053.17-1.005 3.445-3.315 6.827-1.996 2.924-4.068 5.837-7.332 5.898-3.207.059-4.238-1.906-7.905-1.906-3.665 0-4.811 1.845-7.847 1.965-3.15.12-5.55-3.162-7.562-6.075-4.113-5.96-7.257-16.84-3.036-24.184 2.097-3.648 5.844-5.957 9.91-6.017 3.094-.059 6.014 2.086 7.906 2.086 1.89 0 5.438-2.58 9.169-2.2 1.561.065 5.945.632 8.76 4.76-.227.142-5.23 3.061-5.176 9.134zM26.544 7.665C28.217 5.634 29.343 2.81 29.035 0c-2.41.097-5.326 1.61-7.055 3.638-1.55 1.796-2.907 4.67-2.541 7.425 2.687.208 5.433-1.369 7.105-3.4z" fill="#252B33"/></svg>