<svg width="48" height="43" fill="none" xmlns="http://www.w3.org/2000/svg"><path d="M25.218 4.204C29.354.605 33.448-.9 35.953.544c2.611 1.505 3.376 6.08 2.206 11.757-.071.346-.15.697-.238 1.054.531.152 1.047.315 1.545.487C44.65 15.626 48 18.422 48 21.312c0 3.015-3.58 5.962-9.083 7.785a26.8 26.8 0 01-.892.28c.109.436.205.863.288 1.282 1.086 5.487.25 9.997-2.326 11.488-2.492 1.443-6.521.025-10.6-3.485a31.462 31.462 0 01-1.298-1.184 26.22 26.22 0 01-1.002.923c-4.211 3.681-8.536 5.209-11.113 3.723-2.495-1.438-3.28-5.637-2.275-10.925.105-.557.231-1.129.376-1.712-.447-.129-.88-.264-1.298-.407C3.484 27.27 0 24.287 0 21.312c0-2.88 3.245-5.657 8.327-7.428a31.561 31.561 0 011.776-.56 33.228 33.228 0 01-.353-1.59c-1.053-5.38-.312-9.68 2.19-11.128 2.608-1.51 6.953.112 11.287 3.96.265.235.53.48.795.734.287-.275.573-.541.858-.798l.338-.298zM36.04 29.896l-.217.05c-1.93.434-4.048.754-6.284.953-1.319 1.91-2.67 3.629-4.022 5.108.403.389.806.756 1.206 1.1 3.489 3.002 6.723 4.14 8.236 3.265 1.594-.923 2.275-4.594 1.341-9.315a25.105 25.105 0 00-.26-1.16zm-23.977.093l-.033.129c-.086.353-.164.702-.235 1.044l-.083.42c-.858 4.521-.229 7.893 1.285 8.765 1.596.92 5.117-.323 8.74-3.49.303-.265.608-.545.913-.84a50.146 50.146 0 01-4.119-5.092c-2.326-.189-4.502-.502-6.468-.936zm14.834 1.085l-.225.01a67.24 67.24 0 01-2.673.054c-.952 0-1.89-.019-2.809-.055a46.156 46.156 0 002.89 3.457 43.865 43.865 0 002.817-3.466zM24 13.623c-1.479 0-2.943.056-4.37.163a57.41 57.41 0 00-2.328 3.706l-.278.486a58.075 58.075 0 00-1.765 3.383 58.192 58.192 0 004.395 7.59 67.38 67.38 0 004.346.136c1.5 0 2.972-.052 4.397-.154a67.856 67.856 0 002.301-3.715c.75-1.3 1.44-2.601 2.064-3.887a67.361 67.361 0 00-2.07-3.85 61.753 61.753 0 00-2.312-3.693 57.507 57.507 0 00-4.38-.165zm-9.828 10.15l-.061.146a45.818 45.818 0 00-1.495 4.092c1.37.298 2.853.535 4.425.71a60.789 60.789 0 01-2.869-4.948zm19.696-.074l-.105.2c-.408.78-.838 1.562-1.288 2.343A71.636 71.636 0 0131 28.686a43.71 43.71 0 004.479-.764 43.55 43.55 0 00-1.612-4.223zM10.655 15.3l-.214.061a29.2 29.2 0 00-1.439.459c-4.346 1.515-6.951 3.744-6.951 5.492 0 1.842 2.836 4.271 7.39 5.828.38.13.775.253 1.183.37a50.033 50.033 0 012.37-6.148 49.145 49.145 0 01-2.34-6.062zm26.717.03l-.022.073c-.588 1.889-1.369 3.883-2.314 5.92 1.003 2.112 1.823 4.157 2.43 6.08l.346-.104.46-.148c4.751-1.574 7.678-3.983 7.678-5.839 0-1.742-2.71-4.002-7.152-5.532a29.946 29.946 0 00-1.426-.45zM24 17.026a4.286 4.286 0 110 8.572 4.286 4.286 0 010-8.572zm7.008-2.973l.073.115c.471.743.934 1.506 1.386 2.286.485.838.946 1.672 1.382 2.499a44.033 44.033 0 001.535-4.134 45.01 45.01 0 00-4.376-.766zm-14.01-.005l-.508.067c-1.34.18-2.627.409-3.844.681a45.078 45.078 0 001.524 4.153c.428-.83.88-1.659 1.355-2.481l.327-.569h.006l.25-.42c.292-.483.588-.96.89-1.43zM34.83 2.268c-1.552-.765-4.798.466-8.266 3.484-.367.32-.735.657-1.104 1.011 1.372 1.48 2.739 3.187 4.058 5.064a49.18 49.18 0 016.419 1.015c.078-.322.15-.64.214-.954 1.01-4.902.385-8.64-1.223-9.567l-.098-.053zM21.637 5.899c-3.658-3.176-7.097-4.429-8.67-3.518-1.508.872-2.107 4.35-1.205 8.96.095.483.204.976.33 1.479a50.082 50.082 0 016.405-.996 49.062 49.062 0 014.09-5.062 30.61 30.61 0 00-.721-.662l-.229-.201zm2.387 2.33l-.153.165a45.65 45.65 0 00-2.696 3.244 60.717 60.717 0 015.673.001 43.746 43.746 0 00-2.824-3.41z" fill="#252B33"/></svg>