<svg width="62" height="60" fill="none" xmlns="http://www.w3.org/2000/svg"><path fill-rule="evenodd" clip-rule="evenodd" d="M31 5c-9.998 0-18.084 7.825-18.084 17.5C12.916 35.625 31 55 31 55s18.083-19.375 18.083-32.5C49.083 12.825 40.997 5 31 5zM18.083 22.5C18.083 15.6 23.87 10 31 10s12.917 5.6 12.917 12.5c0 7.2-7.44 17.975-12.917 24.7-5.373-6.675-12.917-17.575-12.917-24.7z" fill="#6056DD"/><path fill-rule="evenodd" clip-rule="evenodd" d="M31 28.75c3.567 0 6.458-2.798 6.458-6.25S34.567 16.25 31 16.25s-6.459 2.798-6.459 6.25 2.892 6.25 6.459 6.25z" fill="#6056DD"/></svg>