<svg width="48" height="48" fill="none" xmlns="http://www.w3.org/2000/svg"><path d="M36.102 0c1.015.096 2.138.096 3.153.306a10.14 10.14 0 012.955 1.021 8.994 8.994 0 012.585 1.888c1.478 1.502 2.475 3.458 2.849 5.593a16.58 16.58 0 01.303 3.159H48V36.09a33.207 33.207 0 01-.303 3.16 9.851 9.851 0 01-1.016 3.062 9.034 9.034 0 01-1.833 2.543c-.802.74-1.69 1.356-2.639 1.832a10.21 10.21 0 01-2.902 1.007c-1.04.202-2.097.305-3.154.306H11.805c-1.015-.096-2.138-.096-3.153-.306a10.139 10.139 0 01-2.956-1.022 9.05 9.05 0 01-2.544-1.831C1.675 43.338.677 41.383.303 39.248A16.583 16.583 0 010 36.088v-24.37c.051-1.054.152-2.104.303-3.146A9.851 9.851 0 011.32 5.508a8.998 8.998 0 011.86-2.544c.198-.197.408-.293.606-.503.61-.505 1.26-.95 1.939-1.33l.712-.306A8.012 8.012 0 018.678.21 16.664 16.664 0 0111.013 0h25.089zm-7.884 8.842c3.49 4.642 5.08 10.254 3.684 15.19-.127.45-.278.894-.453 1.326l-.646-.372a100.772 100.772 0 01-16.807-13.345 103.491 103.491 0 0010.173 12.377A114.814 114.814 0 019.716 13.405c.573.95 1.24 1.839 1.99 2.652a84.389 84.389 0 0014.868 14.964c-4.202 2.533-10.188 2.652-16.16 0a19.3 19.3 0 01-4.098-2.4c2.711 4.137 6.572 7.345 11.08 9.206 5.78 2.4 11.534 2.163 15.722-.186l-.002.014c2.03-.85 6.077-2.096 8.262 1.95.505.969 1.603-4.152-2.392-8.994l-.064-.08c.065-.199.168-.397.168-.597 1.992-7.455-2.792-16.355-10.872-21.092z" fill="#252B33"/></svg>